<svg
    width="200"
    height="200"
    viewBox="0 0 200 200"
    fill="none"
    xmlns="http://www.w3.org/2000/svg">

  <title>Holy Sheet Logo </title>
  <desc>
    Angelic paper sheet with halo, white wings (black outline),
    text lines, and wings.
  </desc>

  <!-- (По желание) Добави фон за преглед:
  <rect x="0" y="0" width="200" height="200" fill="#E0E0E0"/>
  -->

  <!-- Ореол (Halo) -->
  <ellipse 
    cx="100" cy="40" 
    rx="40" ry="12" 
    stroke="#FFD700"
    stroke-width="4"
    fill="transparent"
  />

  <!-- Лист хартия: бял пълнеж, черен контур -->
  <path 
    d="
      M 60 60 
      L 140 60 
      L 140 130 
      L 120 150 
      L 60 150 
      Z 
      M 120 130 
      L 140 130 
      L 120 150 
      Z
    "
    fill="#FFFFFF"
    stroke="#000000"
    stroke-width="2"
  />

  <!-- Редове за „текст“ върху листа -->
  <line x1="70"  y1="75"  x2="130" y2="75"  stroke="#000000" stroke-width="1" />
  <line x1="70"  y1="85"  x2="130" y2="85"  stroke="#000000" stroke-width="1" />
  <line x1="70"  y1="95"  x2="130" y2="95"  stroke="#000000" stroke-width="1" />
  <line x1="70"  y1="105" x2="130" y2="105" stroke="#000000" stroke-width="1" />
  <line x1="70"  y1="115" x2="130" y2="115" stroke="#000000" stroke-width="1" />

  <!-- Група за лявото крило (завъртяно леко обратно на часовниковата стрелка) -->
  <g transform="rotate(-40, 40, 75)">
    <path
      d="
        M 40 100
        C 10 80,   0 50,   30 35
        C 50 45,   55 55,  45 65
        C 35 75,   50 75,  40 85
        C 30 95,   35 100, 40 100
        Z
      "
      fill="#FFFFFF"
      stroke="#000000"
      stroke-width="2"
    />
  </g>

  <!-- Група за дясното крило (завъртяно леко по часовниковата стрелка) -->
  <g transform="rotate(40, 160, 75)">
    <path
      d="
        M 160 100
        C 190 80,  200 50, 170 35
        C 150 45,  145 55, 155 65
        C 165 75,  150 75, 160 85
        C 170 95,  165 100, 160 100
        Z
      "
      fill="#FFFFFF"
      stroke="#000000"
      stroke-width="2"
    />
  </g>
</svg>
